<?xml version="1.0" encoding="utf-8"?>
<!DOCTYPE svg PUBLIC "-//W3C//DTD SVG 20010904//EN" "http://www.w3.org/TR/2001/REC-SVG-20010904/DTD/svg10.dtd">
<svg xmlns="http://www.w3.org/2000/svg" xml:space="preserve" xmlns:xlink="http://www.w3.org/1999/xlink" width="396" height="396" viewBox="0 0 396 396">
<desc></desc>
<rect width="396" height="396" fill="#ffffff" cx="0" cy="0" />
<defs>
<rect id="p" width="12" height="12" />
</defs>
<g fill="#000000">
<use x="24" y="24" xlink:href="#p" />
<use x="36" y="24" xlink:href="#p" />
<use x="48" y="24" xlink:href="#p" />
<use x="60" y="24" xlink:href="#p" />
<use x="72" y="24" xlink:href="#p" />
<use x="84" y="24" xlink:href="#p" />
<use x="96" y="24" xlink:href="#p" />
<use x="144" y="24" xlink:href="#p" />
<use x="180" y="24" xlink:href="#p" />
<use x="192" y="24" xlink:href="#p" />
<use x="216" y="24" xlink:href="#p" />
<use x="240" y="24" xlink:href="#p" />
<use x="288" y="24" xlink:href="#p" />
<use x="300" y="24" xlink:href="#p" />
<use x="312" y="24" xlink:href="#p" />
<use x="324" y="24" xlink:href="#p" />
<use x="336" y="24" xlink:href="#p" />
<use x="348" y="24" xlink:href="#p" />
<use x="360" y="24" xlink:href="#p" />
<use x="24" y="36" xlink:href="#p" />
<use x="96" y="36" xlink:href="#p" />
<use x="132" y="36" xlink:href="#p" />
<use x="228" y="36" xlink:href="#p" />
<use x="252" y="36" xlink:href="#p" />
<use x="288" y="36" xlink:href="#p" />
<use x="360" y="36" xlink:href="#p" />
<use x="24" y="48" xlink:href="#p" />
<use x="48" y="48" xlink:href="#p" />
<use x="60" y="48" xlink:href="#p" />
<use x="72" y="48" xlink:href="#p" />
<use x="96" y="48" xlink:href="#p" />
<use x="120" y="48" xlink:href="#p" />
<use x="156" y="48" xlink:href="#p" />
<use x="204" y="48" xlink:href="#p" />
<use x="216" y="48" xlink:href="#p" />
<use x="288" y="48" xlink:href="#p" />
<use x="312" y="48" xlink:href="#p" />
<use x="324" y="48" xlink:href="#p" />
<use x="336" y="48" xlink:href="#p" />
<use x="360" y="48" xlink:href="#p" />
<use x="24" y="60" xlink:href="#p" />
<use x="48" y="60" xlink:href="#p" />
<use x="60" y="60" xlink:href="#p" />
<use x="72" y="60" xlink:href="#p" />
<use x="96" y="60" xlink:href="#p" />
<use x="132" y="60" xlink:href="#p" />
<use x="168" y="60" xlink:href="#p" />
<use x="204" y="60" xlink:href="#p" />
<use x="228" y="60" xlink:href="#p" />
<use x="240" y="60" xlink:href="#p" />
<use x="252" y="60" xlink:href="#p" />
<use x="264" y="60" xlink:href="#p" />
<use x="288" y="60" xlink:href="#p" />
<use x="312" y="60" xlink:href="#p" />
<use x="324" y="60" xlink:href="#p" />
<use x="336" y="60" xlink:href="#p" />
<use x="360" y="60" xlink:href="#p" />
<use x="24" y="72" xlink:href="#p" />
<use x="48" y="72" xlink:href="#p" />
<use x="60" y="72" xlink:href="#p" />
<use x="72" y="72" xlink:href="#p" />
<use x="96" y="72" xlink:href="#p" />
<use x="132" y="72" xlink:href="#p" />
<use x="168" y="72" xlink:href="#p" />
<use x="204" y="72" xlink:href="#p" />
<use x="216" y="72" xlink:href="#p" />
<use x="288" y="72" xlink:href="#p" />
<use x="312" y="72" xlink:href="#p" />
<use x="324" y="72" xlink:href="#p" />
<use x="336" y="72" xlink:href="#p" />
<use x="360" y="72" xlink:href="#p" />
<use x="24" y="84" xlink:href="#p" />
<use x="96" y="84" xlink:href="#p" />
<use x="144" y="84" xlink:href="#p" />
<use x="156" y="84" xlink:href="#p" />
<use x="168" y="84" xlink:href="#p" />
<use x="192" y="84" xlink:href="#p" />
<use x="204" y="84" xlink:href="#p" />
<use x="240" y="84" xlink:href="#p" />
<use x="252" y="84" xlink:href="#p" />
<use x="288" y="84" xlink:href="#p" />
<use x="360" y="84" xlink:href="#p" />
<use x="24" y="96" xlink:href="#p" />
<use x="36" y="96" xlink:href="#p" />
<use x="48" y="96" xlink:href="#p" />
<use x="60" y="96" xlink:href="#p" />
<use x="72" y="96" xlink:href="#p" />
<use x="84" y="96" xlink:href="#p" />
<use x="96" y="96" xlink:href="#p" />
<use x="120" y="96" xlink:href="#p" />
<use x="144" y="96" xlink:href="#p" />
<use x="168" y="96" xlink:href="#p" />
<use x="192" y="96" xlink:href="#p" />
<use x="216" y="96" xlink:href="#p" />
<use x="240" y="96" xlink:href="#p" />
<use x="264" y="96" xlink:href="#p" />
<use x="288" y="96" xlink:href="#p" />
<use x="300" y="96" xlink:href="#p" />
<use x="312" y="96" xlink:href="#p" />
<use x="324" y="96" xlink:href="#p" />
<use x="336" y="96" xlink:href="#p" />
<use x="348" y="96" xlink:href="#p" />
<use x="360" y="96" xlink:href="#p" />
<use x="120" y="108" xlink:href="#p" />
<use x="156" y="108" xlink:href="#p" />
<use x="228" y="108" xlink:href="#p" />
<use x="240" y="108" xlink:href="#p" />
<use x="252" y="108" xlink:href="#p" />
<use x="264" y="108" xlink:href="#p" />
<use x="24" y="120" xlink:href="#p" />
<use x="36" y="120" xlink:href="#p" />
<use x="48" y="120" xlink:href="#p" />
<use x="72" y="120" xlink:href="#p" />
<use x="84" y="120" xlink:href="#p" />
<use x="96" y="120" xlink:href="#p" />
<use x="108" y="120" xlink:href="#p" />
<use x="120" y="120" xlink:href="#p" />
<use x="168" y="120" xlink:href="#p" />
<use x="180" y="120" xlink:href="#p" />
<use x="192" y="120" xlink:href="#p" />
<use x="216" y="120" xlink:href="#p" />
<use x="228" y="120" xlink:href="#p" />
<use x="264" y="120" xlink:href="#p" />
<use x="276" y="120" xlink:href="#p" />
<use x="288" y="120" xlink:href="#p" />
<use x="336" y="120" xlink:href="#p" />
<use x="24" y="132" xlink:href="#p" />
<use x="48" y="132" xlink:href="#p" />
<use x="132" y="132" xlink:href="#p" />
<use x="156" y="132" xlink:href="#p" />
<use x="168" y="132" xlink:href="#p" />
<use x="204" y="132" xlink:href="#p" />
<use x="216" y="132" xlink:href="#p" />
<use x="240" y="132" xlink:href="#p" />
<use x="252" y="132" xlink:href="#p" />
<use x="264" y="132" xlink:href="#p" />
<use x="276" y="132" xlink:href="#p" />
<use x="288" y="132" xlink:href="#p" />
<use x="324" y="132" xlink:href="#p" />
<use x="336" y="132" xlink:href="#p" />
<use x="360" y="132" xlink:href="#p" />
<use x="24" y="144" xlink:href="#p" />
<use x="36" y="144" xlink:href="#p" />
<use x="48" y="144" xlink:href="#p" />
<use x="96" y="144" xlink:href="#p" />
<use x="120" y="144" xlink:href="#p" />
<use x="144" y="144" xlink:href="#p" />
<use x="156" y="144" xlink:href="#p" />
<use x="168" y="144" xlink:href="#p" />
<use x="180" y="144" xlink:href="#p" />
<use x="192" y="144" xlink:href="#p" />
<use x="216" y="144" xlink:href="#p" />
<use x="240" y="144" xlink:href="#p" />
<use x="360" y="144" xlink:href="#p" />
<use x="60" y="156" xlink:href="#p" />
<use x="72" y="156" xlink:href="#p" />
<use x="132" y="156" xlink:href="#p" />
<use x="144" y="156" xlink:href="#p" />
<use x="168" y="156" xlink:href="#p" />
<use x="180" y="156" xlink:href="#p" />
<use x="204" y="156" xlink:href="#p" />
<use x="228" y="156" xlink:href="#p" />
<use x="252" y="156" xlink:href="#p" />
<use x="276" y="156" xlink:href="#p" />
<use x="288" y="156" xlink:href="#p" />
<use x="324" y="156" xlink:href="#p" />
<use x="348" y="156" xlink:href="#p" />
<use x="36" y="168" xlink:href="#p" />
<use x="60" y="168" xlink:href="#p" />
<use x="72" y="168" xlink:href="#p" />
<use x="96" y="168" xlink:href="#p" />
<use x="120" y="168" xlink:href="#p" />
<use x="144" y="168" xlink:href="#p" />
<use x="156" y="168" xlink:href="#p" />
<use x="180" y="168" xlink:href="#p" />
<use x="216" y="168" xlink:href="#p" />
<use x="228" y="168" xlink:href="#p" />
<use x="252" y="168" xlink:href="#p" />
<use x="276" y="168" xlink:href="#p" />
<use x="288" y="168" xlink:href="#p" />
<use x="312" y="168" xlink:href="#p" />
<use x="360" y="168" xlink:href="#p" />
<use x="36" y="180" xlink:href="#p" />
<use x="60" y="180" xlink:href="#p" />
<use x="84" y="180" xlink:href="#p" />
<use x="144" y="180" xlink:href="#p" />
<use x="156" y="180" xlink:href="#p" />
<use x="192" y="180" xlink:href="#p" />
<use x="228" y="180" xlink:href="#p" />
<use x="264" y="180" xlink:href="#p" />
<use x="276" y="180" xlink:href="#p" />
<use x="336" y="180" xlink:href="#p" />
<use x="360" y="180" xlink:href="#p" />
<use x="36" y="192" xlink:href="#p" />
<use x="72" y="192" xlink:href="#p" />
<use x="96" y="192" xlink:href="#p" />
<use x="108" y="192" xlink:href="#p" />
<use x="120" y="192" xlink:href="#p" />
<use x="132" y="192" xlink:href="#p" />
<use x="216" y="192" xlink:href="#p" />
<use x="228" y="192" xlink:href="#p" />
<use x="276" y="192" xlink:href="#p" />
<use x="288" y="192" xlink:href="#p" />
<use x="324" y="192" xlink:href="#p" />
<use x="348" y="192" xlink:href="#p" />
<use x="360" y="192" xlink:href="#p" />
<use x="60" y="204" xlink:href="#p" />
<use x="72" y="204" xlink:href="#p" />
<use x="84" y="204" xlink:href="#p" />
<use x="132" y="204" xlink:href="#p" />
<use x="144" y="204" xlink:href="#p" />
<use x="156" y="204" xlink:href="#p" />
<use x="180" y="204" xlink:href="#p" />
<use x="204" y="204" xlink:href="#p" />
<use x="216" y="204" xlink:href="#p" />
<use x="228" y="204" xlink:href="#p" />
<use x="288" y="204" xlink:href="#p" />
<use x="300" y="204" xlink:href="#p" />
<use x="312" y="204" xlink:href="#p" />
<use x="324" y="204" xlink:href="#p" />
<use x="348" y="204" xlink:href="#p" />
<use x="24" y="216" xlink:href="#p" />
<use x="60" y="216" xlink:href="#p" />
<use x="72" y="216" xlink:href="#p" />
<use x="96" y="216" xlink:href="#p" />
<use x="108" y="216" xlink:href="#p" />
<use x="168" y="216" xlink:href="#p" />
<use x="180" y="216" xlink:href="#p" />
<use x="192" y="216" xlink:href="#p" />
<use x="216" y="216" xlink:href="#p" />
<use x="228" y="216" xlink:href="#p" />
<use x="240" y="216" xlink:href="#p" />
<use x="252" y="216" xlink:href="#p" />
<use x="264" y="216" xlink:href="#p" />
<use x="276" y="216" xlink:href="#p" />
<use x="288" y="216" xlink:href="#p" />
<use x="300" y="216" xlink:href="#p" />
<use x="312" y="216" xlink:href="#p" />
<use x="36" y="228" xlink:href="#p" />
<use x="48" y="228" xlink:href="#p" />
<use x="84" y="228" xlink:href="#p" />
<use x="108" y="228" xlink:href="#p" />
<use x="120" y="228" xlink:href="#p" />
<use x="144" y="228" xlink:href="#p" />
<use x="156" y="228" xlink:href="#p" />
<use x="168" y="228" xlink:href="#p" />
<use x="180" y="228" xlink:href="#p" />
<use x="216" y="228" xlink:href="#p" />
<use x="228" y="228" xlink:href="#p" />
<use x="240" y="228" xlink:href="#p" />
<use x="264" y="228" xlink:href="#p" />
<use x="336" y="228" xlink:href="#p" />
<use x="360" y="228" xlink:href="#p" />
<use x="24" y="240" xlink:href="#p" />
<use x="48" y="240" xlink:href="#p" />
<use x="60" y="240" xlink:href="#p" />
<use x="96" y="240" xlink:href="#p" />
<use x="120" y="240" xlink:href="#p" />
<use x="156" y="240" xlink:href="#p" />
<use x="168" y="240" xlink:href="#p" />
<use x="192" y="240" xlink:href="#p" />
<use x="228" y="240" xlink:href="#p" />
<use x="240" y="240" xlink:href="#p" />
<use x="264" y="240" xlink:href="#p" />
<use x="288" y="240" xlink:href="#p" />
<use x="312" y="240" xlink:href="#p" />
<use x="324" y="240" xlink:href="#p" />
<use x="348" y="240" xlink:href="#p" />
<use x="360" y="240" xlink:href="#p" />
<use x="36" y="252" xlink:href="#p" />
<use x="60" y="252" xlink:href="#p" />
<use x="72" y="252" xlink:href="#p" />
<use x="108" y="252" xlink:href="#p" />
<use x="120" y="252" xlink:href="#p" />
<use x="144" y="252" xlink:href="#p" />
<use x="168" y="252" xlink:href="#p" />
<use x="180" y="252" xlink:href="#p" />
<use x="204" y="252" xlink:href="#p" />
<use x="228" y="252" xlink:href="#p" />
<use x="240" y="252" xlink:href="#p" />
<use x="276" y="252" xlink:href="#p" />
<use x="288" y="252" xlink:href="#p" />
<use x="300" y="252" xlink:href="#p" />
<use x="360" y="252" xlink:href="#p" />
<use x="24" y="264" xlink:href="#p" />
<use x="84" y="264" xlink:href="#p" />
<use x="96" y="264" xlink:href="#p" />
<use x="108" y="264" xlink:href="#p" />
<use x="132" y="264" xlink:href="#p" />
<use x="156" y="264" xlink:href="#p" />
<use x="192" y="264" xlink:href="#p" />
<use x="216" y="264" xlink:href="#p" />
<use x="252" y="264" xlink:href="#p" />
<use x="264" y="264" xlink:href="#p" />
<use x="276" y="264" xlink:href="#p" />
<use x="288" y="264" xlink:href="#p" />
<use x="300" y="264" xlink:href="#p" />
<use x="312" y="264" xlink:href="#p" />
<use x="348" y="264" xlink:href="#p" />
<use x="360" y="264" xlink:href="#p" />
<use x="120" y="276" xlink:href="#p" />
<use x="144" y="276" xlink:href="#p" />
<use x="156" y="276" xlink:href="#p" />
<use x="216" y="276" xlink:href="#p" />
<use x="228" y="276" xlink:href="#p" />
<use x="240" y="276" xlink:href="#p" />
<use x="252" y="276" xlink:href="#p" />
<use x="264" y="276" xlink:href="#p" />
<use x="312" y="276" xlink:href="#p" />
<use x="360" y="276" xlink:href="#p" />
<use x="24" y="288" xlink:href="#p" />
<use x="36" y="288" xlink:href="#p" />
<use x="48" y="288" xlink:href="#p" />
<use x="60" y="288" xlink:href="#p" />
<use x="72" y="288" xlink:href="#p" />
<use x="84" y="288" xlink:href="#p" />
<use x="96" y="288" xlink:href="#p" />
<use x="120" y="288" xlink:href="#p" />
<use x="132" y="288" xlink:href="#p" />
<use x="144" y="288" xlink:href="#p" />
<use x="180" y="288" xlink:href="#p" />
<use x="192" y="288" xlink:href="#p" />
<use x="240" y="288" xlink:href="#p" />
<use x="264" y="288" xlink:href="#p" />
<use x="288" y="288" xlink:href="#p" />
<use x="312" y="288" xlink:href="#p" />
<use x="348" y="288" xlink:href="#p" />
<use x="360" y="288" xlink:href="#p" />
<use x="24" y="300" xlink:href="#p" />
<use x="96" y="300" xlink:href="#p" />
<use x="120" y="300" xlink:href="#p" />
<use x="132" y="300" xlink:href="#p" />
<use x="156" y="300" xlink:href="#p" />
<use x="192" y="300" xlink:href="#p" />
<use x="204" y="300" xlink:href="#p" />
<use x="216" y="300" xlink:href="#p" />
<use x="228" y="300" xlink:href="#p" />
<use x="264" y="300" xlink:href="#p" />
<use x="312" y="300" xlink:href="#p" />
<use x="324" y="300" xlink:href="#p" />
<use x="24" y="312" xlink:href="#p" />
<use x="48" y="312" xlink:href="#p" />
<use x="60" y="312" xlink:href="#p" />
<use x="72" y="312" xlink:href="#p" />
<use x="96" y="312" xlink:href="#p" />
<use x="120" y="312" xlink:href="#p" />
<use x="132" y="312" xlink:href="#p" />
<use x="144" y="312" xlink:href="#p" />
<use x="168" y="312" xlink:href="#p" />
<use x="192" y="312" xlink:href="#p" />
<use x="204" y="312" xlink:href="#p" />
<use x="216" y="312" xlink:href="#p" />
<use x="228" y="312" xlink:href="#p" />
<use x="264" y="312" xlink:href="#p" />
<use x="276" y="312" xlink:href="#p" />
<use x="288" y="312" xlink:href="#p" />
<use x="300" y="312" xlink:href="#p" />
<use x="312" y="312" xlink:href="#p" />
<use x="324" y="312" xlink:href="#p" />
<use x="360" y="312" xlink:href="#p" />
<use x="24" y="324" xlink:href="#p" />
<use x="48" y="324" xlink:href="#p" />
<use x="60" y="324" xlink:href="#p" />
<use x="72" y="324" xlink:href="#p" />
<use x="96" y="324" xlink:href="#p" />
<use x="144" y="324" xlink:href="#p" />
<use x="156" y="324" xlink:href="#p" />
<use x="168" y="324" xlink:href="#p" />
<use x="192" y="324" xlink:href="#p" />
<use x="228" y="324" xlink:href="#p" />
<use x="264" y="324" xlink:href="#p" />
<use x="312" y="324" xlink:href="#p" />
<use x="324" y="324" xlink:href="#p" />
<use x="348" y="324" xlink:href="#p" />
<use x="360" y="324" xlink:href="#p" />
<use x="24" y="336" xlink:href="#p" />
<use x="48" y="336" xlink:href="#p" />
<use x="60" y="336" xlink:href="#p" />
<use x="72" y="336" xlink:href="#p" />
<use x="96" y="336" xlink:href="#p" />
<use x="120" y="336" xlink:href="#p" />
<use x="144" y="336" xlink:href="#p" />
<use x="156" y="336" xlink:href="#p" />
<use x="168" y="336" xlink:href="#p" />
<use x="192" y="336" xlink:href="#p" />
<use x="228" y="336" xlink:href="#p" />
<use x="240" y="336" xlink:href="#p" />
<use x="264" y="336" xlink:href="#p" />
<use x="276" y="336" xlink:href="#p" />
<use x="312" y="336" xlink:href="#p" />
<use x="360" y="336" xlink:href="#p" />
<use x="24" y="348" xlink:href="#p" />
<use x="96" y="348" xlink:href="#p" />
<use x="120" y="348" xlink:href="#p" />
<use x="132" y="348" xlink:href="#p" />
<use x="144" y="348" xlink:href="#p" />
<use x="168" y="348" xlink:href="#p" />
<use x="180" y="348" xlink:href="#p" />
<use x="204" y="348" xlink:href="#p" />
<use x="228" y="348" xlink:href="#p" />
<use x="240" y="348" xlink:href="#p" />
<use x="264" y="348" xlink:href="#p" />
<use x="276" y="348" xlink:href="#p" />
<use x="288" y="348" xlink:href="#p" />
<use x="300" y="348" xlink:href="#p" />
<use x="312" y="348" xlink:href="#p" />
<use x="348" y="348" xlink:href="#p" />
<use x="24" y="360" xlink:href="#p" />
<use x="36" y="360" xlink:href="#p" />
<use x="48" y="360" xlink:href="#p" />
<use x="60" y="360" xlink:href="#p" />
<use x="72" y="360" xlink:href="#p" />
<use x="84" y="360" xlink:href="#p" />
<use x="96" y="360" xlink:href="#p" />
<use x="120" y="360" xlink:href="#p" />
<use x="132" y="360" xlink:href="#p" />
<use x="144" y="360" xlink:href="#p" />
<use x="156" y="360" xlink:href="#p" />
<use x="168" y="360" xlink:href="#p" />
<use x="192" y="360" xlink:href="#p" />
<use x="252" y="360" xlink:href="#p" />
<use x="264" y="360" xlink:href="#p" />
<use x="300" y="360" xlink:href="#p" />
<use x="312" y="360" xlink:href="#p" />
<use x="348" y="360" xlink:href="#p" />
<use x="360" y="360" xlink:href="#p" />
</g>
</svg>